# This file uses centimeters as units for non-parametric coordinates.

mtllib hades portal.mtl
g default
v 19.223921 0.000001 0.000000
v -16.660731 0.000001 0.000000
v 19.223921 0.000001 -1.680760
v 20.534865 0.000001 -1.809876
v 21.795429 0.000001 -2.192264
v 22.957172 0.000001 -2.813229
v 23.975451 0.000001 -3.648907
v 24.811129 0.000001 -4.667184
v 25.432093 0.000001 -5.828928
v 25.814481 0.000001 -7.089493
v 25.943598 0.000001 -8.400437
v 25.943598 71.978637 -8.400437
v 25.814481 71.849517 -7.089493
v 25.432093 71.467121 -5.828928
v 24.811129 70.846163 -4.667184
v 23.975451 70.010490 -3.648907
v 22.957172 68.992209 -2.813229
v 21.795429 67.830466 -2.192264
v 20.534799 66.569834 -1.809870
v -23.380407 0.000001 -8.400437
v -23.251291 0.000001 -7.089493
v -22.868903 0.000001 -5.828928
v -22.247938 0.000001 -4.667184
v -21.412260 0.000001 -3.648907
v -20.393981 0.000001 -2.813229
v -19.232238 0.000001 -2.192264
v -17.971675 0.000001 -1.809876
v -16.660731 0.000001 -1.680760
v -23.380407 71.978637 -8.400437
v -23.251291 71.849517 -7.089493
v -22.868903 71.467121 -5.828928
v -22.247938 70.846163 -4.667184
v -21.412260 70.010490 -3.648907
v -20.393981 68.992209 -2.813229
v -19.232238 67.830466 -2.192264
v -17.971608 66.569834 -1.809870
v 27.823833 74.188972 -8.400437
v 27.823833 0.000001 -8.400437
v -25.260642 74.188972 -8.400437
v -25.260642 0.000001 -8.400437
v 35.751017 81.984133 -8.400436
v 35.751017 0.000001 -8.400436
v -33.187826 81.984133 -8.400436
v -33.187826 0.000001 -8.400436
v 27.823833 74.188972 -3.537300
v 27.996961 74.362096 -2.444214
v 28.499398 74.864533 -1.458127
v 29.281961 75.647097 -0.675564
v 30.268048 76.633183 -0.173128
v 31.361134 77.726271 0.000000
v 27.823833 0.000001 -3.537300
v 27.996961 0.000001 -2.444214
v 28.499398 0.000001 -1.458127
v 29.281961 0.000001 -0.675564
v 30.268048 0.000001 -0.173128
v 31.361134 0.000001 0.000000
v -25.260642 74.188972 -3.537300
v -25.433770 74.362096 -2.444214
v -25.936205 74.864533 -1.458127
v -26.718769 75.647097 -0.675564
v -27.704855 76.633183 -0.173128
v -28.797941 77.726271 0.000000
v -28.797941 0.000001 0.000000
v -27.704855 0.000001 -0.173128
v -26.718769 0.000001 -0.675564
v -25.936205 0.000001 -1.458127
v -25.433770 0.000001 -2.444214
v -25.260642 0.000001 -3.537300
v 32.213717 78.446826 0.000000
v 33.306806 79.539922 -0.173128
v 34.292892 80.526004 -0.675564
v 35.075456 81.308572 -1.458127
v 35.577893 81.811013 -2.444214
v 35.751017 81.984133 -3.537300
v 32.213717 0.000001 0.000000
v 33.306806 0.000001 -0.173128
v 34.292892 0.000001 -0.675564
v 35.075456 0.000001 -1.458127
v 35.577893 0.000001 -2.444214
v 35.751017 0.000001 -3.537300
v -29.650525 78.446826 0.000000
v -30.743611 79.539922 -0.173128
v -31.729696 80.526004 -0.675564
v -32.512261 81.308572 -1.458127
v -33.014698 81.811013 -2.444214
v -33.187826 81.984133 -3.537300
v -33.187826 0.000001 -3.537300
v -33.014698 0.000001 -2.444214
v -32.512261 0.000001 -1.458127
v -31.729696 0.000001 -0.675564
v -30.743611 0.000001 -0.173128
v -29.650525 0.000001 0.000000
v 39.709495 85.888069 -8.400436
v 39.709495 0.000001 -8.400436
v -37.146304 85.888069 -8.400436
v -37.146304 0.000001 -8.400436
v 39.709495 85.888069 0.000000
v 39.709495 0.000001 0.000000
v -37.146304 85.888069 0.000000
v -37.146304 0.000001 0.000000
v 16.595945 65.258953 0.000000
v 16.948028 63.944967 0.000000
v 17.909933 62.983061 0.000000
v 19.223921 62.630981 0.000000
v 17.909933 62.983061 -1.680760
v 16.948028 63.944967 -1.680760
v 16.595945 65.258953 -1.680760
v 19.223921 62.630981 -1.680760
v -16.660731 62.630981 0.000000
v -15.346742 62.983061 0.000000
v -14.384837 63.944967 0.000000
v -14.032755 65.258953 0.000000
v -14.384837 63.944967 -1.680760
v -15.346742 62.983061 -1.680760
v -16.660731 62.630981 -1.680760
v -14.032755 65.258953 -1.680760
vt 0.932221 0.511274
vt 0.903381 0.506808
vt 0.911434 0.054565
vt 0.919842 0.053430
vt 0.897894 0.506808
vt 0.903148 0.057311
vt 0.892230 0.506913
vt 0.894401 0.061559
vt 0.886281 0.507075
vt 0.886248 0.067253
vt 0.879928 0.507283
vt 0.877556 0.074194
vt 0.873171 0.507494
vt 0.869048 0.082058
vt 0.865875 0.507673
vt 0.859275 0.090338
vt 0.831517 0.508981
vt 0.804560 0.509992
vt 0.814458 0.245972
vt 0.821523 0.246226
vt 0.839774 0.002530
vt 0.845823 0.243972
vt 0.821158 0.243357
vt 0.827254 0.002838
vt 0.782082 0.508052
vt 0.773226 0.508097
vt 0.773623 0.068480
vt 0.782108 0.076133
vt 0.763590 0.508178
vt 0.764937 0.061750
vt 0.791340 0.507931
vt 0.606770 0.573791
vt 0.754472 0.508163
vt 0.756867 0.056313
vt 0.745061 0.508146
vt 0.748172 0.052263
vt 0.736049 0.508086
vt 0.739968 0.049737
vt 0.727102 0.508009
vt 0.731568 0.048786
vt 0.643832 0.501405
vt 0.636622 0.494965
vt 0.637198 0.001418
vt 0.644418 0.001425
vt 0.629409 0.489852
vt 0.629978 0.001409
vt 0.651042 0.508548
vt 0.651639 0.001434
vt 0.622194 0.486568
vt 0.622757 0.001400
vt 0.614977 0.485431
vt 0.615537 0.001392
vt 0.583251 0.485400
vt 0.583808 0.001357
vt 0.057860 0.307587
vt 0.042252 0.306936
vt 0.042300 0.000924
vt 0.057908 0.000927
vt 0.028060 0.305054
vt 0.028108 0.000921
vt 0.127286 0.000935
vt 0.127239 0.307577
vt 0.016519 0.302125
vt 0.016566 0.000919
vt 0.008458 0.298435
vt 0.008505 0.000918
vt 0.003682 0.294345
vt 0.003728 0.000917
vt 0.723005 0.002856
vt 0.723569 0.486867
vt 0.691842 0.486904
vt 0.691278 0.002893
vt 0.684623 0.488041
vt 0.684057 0.002902
vt 0.677406 0.491328
vt 0.676837 0.002910
vt 0.670192 0.496442
vt 0.669617 0.002918
vt 0.662980 0.502883
vt 0.662397 0.002927
vt 0.655767 0.510023
vt 0.655177 0.002935
vt 0.057835 0.872087
vt 0.058004 0.565442
vt 0.127382 0.565445
vt 0.127214 0.872126
vt 0.042396 0.566081
vt 0.042227 0.872078
vt 0.028203 0.567952
vt 0.028034 0.872070
vt 0.016659 0.570873
vt 0.016493 0.872063
vt 0.008596 0.574557
vt 0.008432 0.872059
vt 0.003817 0.578643
vt 0.003655 0.872056
vt 0.580169 0.122521
vt 0.253255 0.125970
vt 0.251908 0.003974
vt 0.578864 0.000500
vt 0.251588 0.418426
vt 0.578436 0.426240
vt 0.575466 0.548240
vt 0.248578 0.540385
vt 0.208711 0.671589
vt 0.206726 0.652660
vt 0.230313 0.652660
vt 0.231860 0.658322
vt 0.221183 0.686252
vt 0.234675 0.663235
vt 0.206726 0.554747
vt 0.205179 0.549086
vt 0.231860 0.549085
vt 0.230313 0.554747
vt 0.211526 0.530907
vt 0.234675 0.544173
vt 0.624599 0.846491
vt 0.616898 0.838532
vt 0.616361 0.564773
vt 0.624317 0.556669
vt 0.632613 0.853412
vt 0.632561 0.549620
vt 0.640903 0.859275
vt 0.641025 0.543647
vt 0.649440 0.863556
vt 0.649705 0.539311
vt 0.657986 0.866152
vt 0.658359 0.536706
vt 0.666599 0.867150
vt 0.667024 0.535711
vt 0.202926 0.442607
vt 0.202926 0.788928
vt 0.171198 0.788927
vt 0.171198 0.442607
vt 0.163979 0.441477
vt 0.163978 0.790057
vt 0.156757 0.438200
vt 0.156758 0.793334
vt 0.149538 0.433094
vt 0.149536 0.798441
vt 0.142316 0.426662
vt 0.142318 0.804873
vt 0.001121 0.549060
vt 0.135097 0.812004
vt 0.042397 0.564805
vt 0.042252 0.308242
vt 0.028203 0.562935
vt 0.028061 0.310130
vt 0.016660 0.560016
vt 0.016520 0.313064
vt 0.008597 0.556333
vt 0.008461 0.316758
vt 0.003818 0.552247
vt 0.003687 0.320849
vt 0.129564 0.417729
vt 0.131252 0.125225
vt 0.226067 0.689116
vt 0.239559 0.666098
vt 0.226067 0.518292
vt 0.239560 0.541310
vt 0.858133 0.507830
vt 0.852510 0.115207
vt 0.249228 0.651633
vt 0.599849 0.600098
vt 0.249228 0.555775
vt 0.799973 0.507875
vt 0.915504 0.999500
vt 0.915483 0.529915
vt 0.927749 0.515494
vt 0.927771 0.999499
vt 0.593695 0.529915
vt 0.581429 0.515494
vt 0.593674 0.999500
vt 0.581407 0.999500
vt 0.000466 0.872054
vt 0.000493 0.291649
vt 0.000539 0.000916
vt 0.580338 0.137595
vt 0.268153 0.140949
vt 0.266657 0.403617
vt 0.578809 0.411170
vt 0.000627 0.581336
vt 0.000994 0.324040
vt 0.135097 0.419530
vt 0.799291 0.109577
vt 0.600272 0.803274
vt 0.792086 0.084444
vt 0.607296 0.829553
vt 0.221183 0.521155
vt 0.208711 0.535819
vt 0.205179 0.658322
vt 0.211527 0.676502
vn -0.995185 0.000000 -0.098017
vn -0.980820 0.000000 -0.194918
vn -0.981466 0.000000 -0.191635
vn -0.995185 0.000000 -0.098017
vn -0.924012 0.000000 -0.382363
vn -0.926640 0.000000 -0.375949
vn -0.831751 0.000000 -0.555149
vn -0.837840 0.000000 -0.545915
vn -0.707568 0.000000 -0.706646
vn -0.718920 0.000000 -0.695093
vn -0.556217 0.000000 -0.831037
vn -0.575262 0.000000 -0.817969
vn -0.383493 -0.000000 -0.923544
vn -0.268150 -0.163818 -0.949347
vn -0.196995 -0.000000 -0.980404
vn -0.169203 -0.099722 -0.980523
vn -0.098017 -0.000000 -0.995185
vn -0.096323 -0.000569 -0.995350
vn -1.000000 0.000000 0.000000
vn -1.000000 0.000000 0.000000
vn -1.000000 0.000000 0.000000
vn -1.000000 0.000000 0.000000
vn 1.000000 0.000000 0.000000
vn 1.000000 0.000000 0.000000
vn 1.000000 0.000000 0.000000
vn 1.000000 0.000000 0.000000
vn 0.000000 -1.000000 0.000000
vn 0.000000 -1.000000 0.000000
vn 0.000000 -1.000000 0.000000
vn 0.000000 -1.000000 0.000000
vn -0.001047 -0.094901 -0.995486
vn 0.001047 -0.094901 -0.995486
vn 0.169203 -0.099722 -0.980523
vn 0.268150 -0.163818 -0.949347
vn 0.000000 -0.576565 -0.817051
vn 0.000000 -0.576565 -0.817051
vn 0.000000 -0.719837 -0.694143
vn 0.000000 -0.719837 -0.694143
vn 0.000000 -0.838391 -0.545070
vn 0.000000 -0.838391 -0.545070
vn 0.000000 -0.926893 -0.375325
vn 0.000000 -0.926893 -0.375325
vn 0.000000 -0.995185 -0.098019
vn 0.000000 -0.981530 -0.191306
vn 0.000000 -0.981530 -0.191306
vn 0.000000 -0.995185 -0.098019
vn 0.098017 0.000000 -0.995185
vn 0.196995 -0.000000 -0.980404
vn 0.096323 -0.000569 -0.995350
vn 0.383493 -0.000000 -0.923544
vn 0.556217 0.000000 -0.831037
vn 0.575262 0.000000 -0.817969
vn 0.707568 0.000000 -0.706646
vn 0.718919 0.000000 -0.695093
vn 0.831751 0.000000 -0.555149
vn 0.837840 0.000000 -0.545915
vn 0.924012 0.000000 -0.382363
vn 0.926640 0.000000 -0.375949
vn 0.980820 0.000000 -0.194918
vn 0.981466 0.000000 -0.191635
vn 0.995185 0.000000 -0.098017
vn 0.995185 0.000000 -0.098017
vn -0.000000 0.000000 -1.000000
vn -0.000000 0.000000 -1.000000
vn -0.000000 0.000000 -1.000000
vn -0.000000 0.000000 -1.000000
vn 0.000000 0.000000 -1.000000
vn 0.000000 0.000000 -1.000000
vn 0.000000 0.000000 -1.000000
vn 0.000000 0.000000 -1.000000
vn 0.000000 0.000000 -1.000000
vn 0.000000 0.000000 -1.000000
vn 0.000000 0.000000 -1.000000
vn 0.000000 0.000000 -1.000000
vn -0.029767 0.022781 -0.999297
vn -0.148848 0.112436 -0.982447
vn -0.307995 0.000000 -0.951388
vn -0.088180 0.000000 -0.996104
vn -0.560631 0.000000 -0.828066
vn -0.587037 0.000000 -0.809560
vn -0.797619 0.000000 -0.603161
vn -0.808618 0.000000 -0.588334
vn -0.948287 0.000000 -0.317414
vn -0.950945 0.000000 -0.309358
vn -0.999559 0.000000 -0.029705
vn -0.999577 0.000000 -0.029082
vn 0.999597 0.000000 -0.028401
vn 0.953893 0.000000 -0.300148
vn 0.951157 0.000000 -0.308706
vn 0.999579 0.000000 -0.029029
vn 0.820902 0.000000 -0.571069
vn 0.809384 0.000000 -0.587279
vn 0.617347 0.000000 -0.786691
vn 0.588489 0.000000 -0.808505
vn 0.211304 -0.171288 -0.962294
vn 0.310002 0.000000 -0.950736
vn 0.070176 -0.055930 -0.995965
vn 0.089075 0.000000 -0.996025
vn 1.000000 0.000000 0.000000
vn 1.000000 0.000000 0.000000
vn 0.999559 0.000000 -0.029705
vn 0.999577 0.000000 -0.029082
vn 0.000000 1.000000 0.000000
vn 0.000000 1.000000 0.000000
vn 0.000000 0.999557 -0.029755
vn 0.000000 0.999557 -0.029755
vn -1.000000 0.000000 0.000000
vn -1.000000 0.000000 0.000000
vn 0.088180 0.000000 -0.996104
vn 0.029767 0.022781 -0.999297
vn -0.070176 -0.055930 -0.995965
vn -0.089075 0.000000 -0.996025
vn -0.999579 0.000000 -0.029029
vn -0.999597 0.000000 -0.028400
vn -1.000000 0.000000 0.000000
vn -1.000000 0.000000 0.000000
vn 0.000000 -0.999598 -0.028366
vn 0.000000 -0.999598 -0.028366
vn 0.000000 -1.000000 0.000000
vn 0.000000 -1.000000 0.000000
vn 1.000000 0.000000 0.000000
vn 1.000000 0.000000 0.000000
vn 0.148848 0.112436 -0.982447
vn 0.307995 0.000000 -0.951388
vn 0.560631 0.000000 -0.828066
vn 0.587037 0.000000 -0.809560
vn 0.797619 0.000000 -0.603161
vn 0.808617 0.000000 -0.588335
vn 0.948287 0.000000 -0.317415
vn 0.950945 0.000000 -0.309359
vn 0.000000 0.559390 -0.828905
vn 0.000000 0.559390 -0.828905
vn 0.000000 0.796915 -0.604092
vn 0.000000 0.796915 -0.604092
vn 0.000000 0.948085 -0.318016
vn 0.000000 0.948085 -0.318016
vn -0.953893 0.000000 -0.300147
vn -0.951158 0.000000 -0.308704
vn -0.820902 0.000000 -0.571069
vn -0.809385 0.000000 -0.587279
vn -0.617347 0.000000 -0.786691
vn -0.588489 0.000000 -0.808505
vn -0.211304 -0.171288 -0.962295
vn -0.310001 0.000000 -0.950736
vn 0.000000 -0.954030 -0.299712
vn 0.000000 -0.954030 -0.299712
vn 0.000000 -0.821396 -0.570358
vn 0.000000 -0.821396 -0.570358
vn 0.000000 -0.618276 -0.785961
vn 0.000000 -0.618276 -0.785961
vn 0.000000 0.000000 -1.000000
vn 0.000000 0.000000 -1.000000
vn 0.000000 0.000000 -1.000000
vn 0.000000 0.000000 -1.000000
vn 0.000000 0.000000 -1.000000
vn 0.000000 0.000000 -1.000000
vn 0.000000 0.000000 -1.000000
vn 0.000000 0.000000 -1.000000
vn 0.000000 0.000000 -1.000000
vn 0.000000 0.000000 -1.000000
vn 0.000000 0.000000 -1.000000
vn 0.000000 0.000000 -1.000000
vn 1.000000 0.000000 0.000000
vn 1.000000 0.000000 0.000000
vn 1.000000 0.000000 0.000000
vn 1.000000 0.000000 0.000000
vn 0.000000 1.000000 0.000000
vn 0.000000 1.000000 0.000000
vn 0.000000 1.000000 0.000000
vn 0.000000 1.000000 0.000000
vn -1.000000 0.000000 0.000000
vn -1.000000 0.000000 0.000000
vn -1.000000 0.000000 0.000000
vn -1.000000 0.000000 0.000000
vn -0.258818 -0.965926 0.000000
vn -0.258818 -0.965926 0.000000
vn -0.258818 -0.965926 0.000000
vn -0.258818 -0.965926 0.000000
vn -0.707107 -0.707107 0.000000
vn -0.707107 -0.707107 0.000000
vn -0.707107 -0.707107 0.000000
vn -0.707107 -0.707107 0.000000
vn -0.965926 -0.258820 0.000000
vn -0.965926 -0.258820 0.000000
vn -0.965926 -0.258820 0.000000
vn -0.965926 -0.258820 0.000000
vn 0.965926 -0.258819 0.000000
vn 0.866025 -0.500000 0.000000
vn 0.866025 -0.500000 0.000000
vn 0.965926 -0.258819 0.000000
vn 0.707107 -0.707107 0.000000
vn 0.707107 -0.707107 0.000000
vn 0.258818 -0.965926 0.000000
vn 0.258818 -0.965926 0.000000
vn 0.258818 -0.965926 0.000000
vn 0.258818 -0.965926 0.000000
vn -0.015123 -0.024914 -0.999575
vn -0.024914 -0.015123 -0.999575
vn 0.024914 -0.015123 -0.999575
vn 0.015123 -0.024914 -0.999575
s 1
g pCube1
usemtl initialShadingGroup
f 11/1/1 10/2/2 13/3/3 12/4/4
f 10/2/2 9/5/5 14/6/6 13/3/3
f 9/5/5 8/7/7 15/8/8 14/6/6
f 8/7/7 7/9/9 16/10/10 15/8/8
f 7/9/9 6/11/11 17/12/12 16/10/10
f 6/11/11 5/13/13 18/14/14 17/12/12
f 5/13/13 4/15/15 19/16/16 18/14/14
f 4/15/15 3/161/17 108/162/18 19/16/16
s off
f 104/17/19 108/18/20 3/19/21 1/20/22
f 28/21/23 115/22/24 109/23/25 2/24/26
f 112/111/27 116/114/28 107/107/29 101/106/30
s 1
f 19/188/16 107/186/31 116/164/32 36/32/33
f 18/118/14 19/188/16 36/32/33 35/119/34
f 17/117/35 18/118/14 35/119/34 34/120/36
f 16/121/37 17/117/35 34/120/36 33/122/38
f 15/123/39 16/121/37 33/122/38 32/124/40
f 14/125/41 15/123/39 32/124/40 31/126/42
f 12/129/43 13/127/44 30/128/45 29/130/46
f 13/127/44 14/125/41 31/126/42 30/128/45
f 28/166/47 27/31/48 36/187/33 115/185/49
f 27/31/48 26/25/50 35/28/34 36/187/33
f 26/25/50 25/26/51 34/27/52 35/28/34
f 25/26/51 24/29/53 33/30/54 34/27/52
f 24/29/53 23/33/55 32/34/56 33/30/54
f 23/33/55 22/35/57 31/36/58 32/34/56
f 22/35/57 21/37/59 30/38/60 31/36/58
f 21/37/59 20/39/61 29/40/62 30/38/60
s off
f 11/167/63 12/168/64 37/169/65 38/170/66
f 12/168/67 29/171/68 39/172/69 37/169/70
f 29/171/71 20/173/72 40/174/73 39/172/74
s 3
f 62/47/75 61/41/76 64/44/77 63/48/78
f 61/41/76 60/42/79 65/43/80 64/44/77
f 60/42/79 59/45/81 66/46/82 65/43/80
f 59/45/81 58/49/83 67/50/84 66/46/82
f 58/49/83 57/51/85 68/52/86 67/50/84
f 86/55/87 85/56/88 88/57/89 87/58/90
f 85/56/88 84/59/91 89/60/92 88/57/89
f 84/59/91 83/63/93 90/64/94 89/60/92
f 83/63/93 82/65/95 91/66/96 90/64/94
f 82/65/95 81/67/97 92/68/98 91/66/96
f 38/69/99 37/70/100 45/71/101 51/72/102
f 37/131/103 39/132/104 57/133/105 45/134/106
f 39/53/107 40/54/108 68/52/86 57/51/85
f 56/175/109 50/182/110 69/95/111 75/96/112
f 50/143/110 62/183/75 81/154/97 69/153/111
f 62/176/75 63/177/78 92/68/98 81/67/97
f 80/83/113 74/84/114 41/85/115 42/86/116
f 74/84/117 86/55/118 43/62/119 41/85/120
f 86/55/87 87/58/90 44/61/121 43/62/122
f 49/79/123 50/81/110 56/82/109 55/80/124
f 48/77/125 49/79/123 55/80/124 54/78/126
f 47/75/127 48/77/125 54/78/126 53/76/128
f 45/71/101 46/73/129 52/74/130 51/72/102
f 46/73/129 47/75/127 53/76/128 52/74/130
f 50/184/110 49/141/123 61/142/76 62/144/75
f 49/141/123 48/139/131 60/140/132 61/142/76
f 48/139/131 47/137/133 59/138/134 60/140/132
f 47/137/133 46/135/135 58/136/136 59/138/134
f 46/135/135 45/134/106 57/133/105 58/136/136
f 73/87/137 74/84/114 80/83/113 79/88/138
f 72/89/139 73/87/137 79/88/138 78/90/140
f 71/91/141 72/89/139 78/90/140 77/92/142
f 69/95/111 70/93/143 76/94/144 75/96/112
f 70/93/143 71/91/141 77/92/142 76/94/144
f 74/84/117 73/145/145 85/146/146 86/55/118
f 73/145/145 72/147/147 84/148/148 85/146/146
f 72/147/147 71/149/149 83/150/150 84/148/148
f 71/149/149 70/151/143 82/152/95 83/150/150
f 70/151/143 69/153/111 81/154/97 82/152/95
s off
f 42/178/151 41/179/152 93/98/153 94/97/154
f 41/179/155 43/180/156 95/101/157 93/98/158
f 43/180/159 44/181/160 96/102/161 95/101/162
f 94/97/163 93/98/164 97/99/165 98/100/166
f 93/98/167 95/101/168 99/155/169 97/156/170
f 95/101/171 96/102/172 100/103/173 99/104/174
f 104/157/175 103/109/176 105/110/177 108/158/178
f 103/192/179 102/105/180 106/108/181 105/110/182
f 102/191/183 101/106/184 107/107/185 106/108/186
s 10
f 112/111/187 111/112/188 113/113/189 116/114/190
f 111/190/188 110/115/191 114/116/192 113/113/189
s off
f 110/189/193 109/159/194 115/160/195 114/116/196
s 1
f 19/163/16 108/158/18 105/110/197
f 19/163/16 105/110/197 106/108/198
f 19/163/16 106/108/198 107/107/31
f 36/165/33 116/114/32 113/113/199
f 36/165/33 113/113/199 114/116/200
f 36/165/33 114/116/200 115/160/49
