# This file uses centimeters as units for non-parametric coordinates.

mtllib mumro.mtl
g default
v -0.500000 -0.500000 0.500000
v 0.500000 -0.500000 0.500000
v -0.500000 0.830371 0.500000
v 0.500000 0.500000 0.500000
v -0.500000 0.830371 -0.500000
v 0.500000 0.500000 -0.500000
v -0.500000 -0.500000 -0.500000
v 0.500000 -0.500000 -0.500000
v 1.822325 -0.500000 -0.500000
v 1.822325 -0.500000 0.500000
v 1.549129 0.647027 -0.500000
v 1.822325 0.579233 0.500000
v 3.182235 -0.500000 -0.500000
v 3.182235 -0.500000 0.500000
v 3.182235 0.067394 -0.500000
v 3.182235 0.299782 0.500000
v 4.636228 -0.500000 -0.500000
v 4.636228 -0.500000 0.500000
v 4.636228 0.305210 -0.500000
v 4.636227 0.299782 0.500000
v 6.432696 -0.500000 -0.500000
v 6.432696 -0.500000 0.500000
v 6.868188 0.942364 -0.500000
v 6.432696 0.748149 0.500000
v 8.261284 -0.500000 -0.500000
v 8.261284 -0.500000 0.500000
v 8.261284 0.213387 -0.500000
v 8.261283 0.222543 0.500000
vt 0.157450 0.999002
vt 0.157450 0.885091
vt 0.271361 0.885091
vt 0.271361 0.999002
vt 0.157450 0.734464
vt 0.271361 0.765584
vt 0.157450 0.579556
vt 0.271361 0.579556
vt 0.157450 0.413931
vt 0.271361 0.413931
vt 0.157450 0.209294
vt 0.271361 0.159686
vt 0.157450 0.000998
vt 0.271361 0.000998
vt 0.444984 0.999002
vt 0.444984 0.885091
vt 0.558894 0.885091
vt 0.558894 0.999002
vt 0.444984 0.734464
vt 0.558894 0.734464
vt 0.444984 0.579556
vt 0.558894 0.579556
vt 0.444984 0.413931
vt 0.558894 0.413931
vt 0.444984 0.209294
vt 0.558894 0.209294
vt 0.444984 0.000998
vt 0.558894 0.000998
vt 0.681561 0.114909
vt 0.681561 0.000998
vt 0.762824 0.000998
vt 0.763867 0.114909
vt 0.563273 0.000998
vt 0.677183 0.000998
vt 0.677183 0.152542
vt 0.563273 0.152542
vt 0.000763 0.999002
vt 0.000763 0.885091
vt 0.114674 0.885091
vt 0.152307 0.999002
vt 0.000763 0.734464
vt 0.123699 0.734464
vt 0.000763 0.579556
vt 0.091867 0.579556
vt 0.000763 0.413931
vt 0.091867 0.413931
vt 0.000763 0.209294
vt 0.142941 0.209294
vt 0.000763 0.000998
vt 0.083069 0.000998
vt 0.288497 0.999002
vt 0.326129 0.885091
vt 0.440040 0.885091
vt 0.440040 0.999002
vt 0.309381 0.765584
vt 0.440040 0.734464
vt 0.375408 0.579556
vt 0.440040 0.579556
vt 0.348318 0.413931
vt 0.440040 0.413931
vt 0.275739 0.159686
vt 0.440040 0.209294
vt 0.358778 0.000998
vt 0.440040 0.000998
vn 0.000000 0.000000 1.000000
vn 0.000000 0.000000 1.000000
vn 0.000000 0.000000 1.000000
vn 0.000000 0.000000 1.000000
vn 0.313695 0.949524 0.000000
vn 0.313695 0.949524 0.000000
vn 0.313695 0.949524 0.000000
vn 0.313695 0.949524 0.000000
vn 0.000000 0.000000 -1.000000
vn 0.000000 0.000000 -1.000000
vn 0.000000 0.000000 -1.000000
vn 0.000000 0.000000 -1.000000
vn 0.000000 -1.000000 0.000000
vn 0.000000 -1.000000 0.000000
vn 0.000000 -1.000000 0.000000
vn 0.000000 -1.000000 0.000000
vn 1.000000 0.000000 0.000000
vn 1.000000 0.000000 0.000000
vn 1.000000 0.000000 0.000000
vn 1.000000 0.000000 0.000000
vn -1.000000 0.000000 0.000000
vn -1.000000 0.000000 0.000000
vn -1.000000 0.000000 0.000000
vn -1.000000 0.000000 0.000000
vn -0.000000 -1.000000 0.000000
vn -0.000000 -1.000000 0.000000
vn -0.000000 -1.000000 0.000000
vn -0.000000 -1.000000 0.000000
vn 0.000000 0.000000 -1.000000
vn 0.000000 0.000000 -1.000000
vn 0.000000 0.000000 -1.000000
vn 0.000000 0.000000 -1.000000
vn -0.094875 0.994395 0.046667
vn -0.094875 0.994395 0.046667
vn -0.094875 0.994395 0.046667
vn -0.094875 0.994395 0.046667
vn -0.000000 0.000000 1.000000
vn -0.000000 0.000000 1.000000
vn -0.000000 0.000000 1.000000
vn -0.000000 0.000000 1.000000
vn 0.000000 -1.000000 0.000000
vn 0.000000 -1.000000 0.000000
vn 0.000000 -1.000000 0.000000
vn 0.000000 -1.000000 0.000000
vn -0.000000 0.000000 -1.000000
vn -0.000000 0.000000 -1.000000
vn -0.000000 0.000000 -1.000000
vn -0.000000 0.000000 -1.000000
vn 0.274027 0.954700 -0.116001
vn 0.274027 0.954700 -0.116001
vn 0.274027 0.954700 -0.116001
vn 0.274027 0.954700 -0.116001
vn 0.000000 0.000000 1.000000
vn 0.000000 0.000000 1.000000
vn 0.000000 0.000000 1.000000
vn 0.000000 0.000000 1.000000
vn 0.000000 -1.000000 0.000000
vn 0.000000 -1.000000 0.000000
vn 0.000000 -1.000000 0.000000
vn 0.000000 -1.000000 0.000000
vn 0.000000 0.000000 -1.000000
vn 0.000000 0.000000 -1.000000
vn 0.000000 0.000000 -1.000000
vn 0.000000 0.000000 -1.000000
vn -0.080992 0.990358 -0.112386
vn -0.080992 0.990358 -0.112386
vn -0.080992 0.990358 -0.112386
vn -0.080992 0.990358 -0.112386
vn 0.000000 0.000000 1.000000
vn 0.000000 0.000000 1.000000
vn 0.000000 0.000000 1.000000
vn 0.000000 0.000000 1.000000
vn 0.000000 -1.000000 0.000000
vn 0.000000 -1.000000 0.000000
vn 0.000000 -1.000000 0.000000
vn 0.000000 -1.000000 0.000000
vn 0.000000 0.000000 -1.000000
vn 0.000000 0.000000 -1.000000
vn 0.000000 0.000000 -1.000000
vn 0.000000 0.000000 -1.000000
vn -0.259979 0.964798 0.039698
vn -0.259979 0.964798 0.039698
vn -0.259979 0.964798 0.039698
vn -0.259979 0.964798 0.039698
vn 0.000000 0.000000 1.000000
vn 0.000000 0.000000 1.000000
vn 0.000000 0.000000 1.000000
vn 0.000000 0.000000 1.000000
vn 0.000000 -1.000000 0.000000
vn 0.000000 -1.000000 0.000000
vn 0.000000 -1.000000 0.000000
vn 0.000000 -1.000000 0.000000
vn 0.000000 0.000000 -1.000000
vn 0.000000 0.000000 -1.000000
vn 0.000000 0.000000 -1.000000
vn 0.000000 0.000000 -1.000000
vn 0.358020 0.919372 0.163026
vn 0.358020 0.919372 0.163026
vn 0.358020 0.919372 0.163026
vn 0.358020 0.919372 0.163026
vn 0.000000 0.000000 1.000000
vn 0.000000 0.000000 1.000000
vn 0.000000 0.000000 1.000000
vn 0.000000 0.000000 1.000000
s off
g pCube1
usemtl initialShadingGroup
f 1/37/1 2/38/2 4/39/3 3/40/4
f 3/1/5 4/2/6 6/3/7 5/4/8
f 5/51/9 6/52/10 8/53/11 7/54/12
f 7/15/13 8/16/14 2/17/15 1/18/16
f 26/29/17 25/30/18 27/31/19 28/32/20
f 7/33/21 1/34/22 3/35/23 5/36/24
f 2/17/25 8/16/26 9/19/27 10/20/28
f 8/53/29 6/52/30 11/55/31 9/56/32
f 6/3/33 4/2/34 12/5/35 11/6/36
f 4/39/37 2/38/38 10/41/39 12/42/40
f 10/20/41 9/19/42 13/21/43 14/22/44
f 9/56/45 11/55/46 15/57/47 13/58/48
f 11/6/49 12/5/50 16/7/51 15/8/52
f 12/42/53 10/41/54 14/43/55 16/44/56
f 14/22/57 13/21/58 17/23/59 18/24/60
f 13/58/61 15/57/62 19/59/63 17/60/64
f 15/8/65 16/7/66 20/9/67 19/10/68
f 16/44/69 14/43/70 18/45/71 20/46/72
f 18/24/73 17/23/74 21/25/75 22/26/76
f 17/60/77 19/59/78 23/61/79 21/62/80
f 19/10/81 20/9/82 24/11/83 23/12/84
f 20/46/85 18/45/86 22/47/87 24/48/88
f 22/26/89 21/25/90 25/27/91 26/28/92
f 21/62/93 23/61/94 27/63/95 25/64/96
f 23/12/97 24/11/98 28/13/99 27/14/100
f 24/48/101 22/47/102 26/49/103 28/50/104
