# This file uses centimeters as units for non-parametric coordinates.

mtllib tallrok.mtl
g default
v -20.692617 0.000012 75.549595
v -9.784005 46.496250 63.960910
v -9.784005 46.496250 44.392893
v 9.784006 46.496250 44.392893
v -21.737265 0.000012 34.180844
v 13.694144 0.000012 29.390059
v 18.357262 0.000012 65.445561
v 13.657656 0.000012 70.145190
v 5.084399 46.496250 63.960910
v 9.784006 46.496250 59.261318
v -4.428950 61.296104 52.216070
v -2.349804 58.001865 56.526720
v 2.349804 58.001865 51.827101
v 16.469774 19.982563 43.084500
v 8.913936 19.982563 67.104163
v 3.180265 19.982563 69.409450
v -20.161921 19.982563 62.569824
v -8.999498 19.982563 34.984030
vt 0.496738 0.728854
vt 0.343699 0.999500
vt 0.266001 0.838294
vt 0.350545 0.634745
vt 0.083422 0.752311
vt 0.147071 0.629885
vt 0.023205 0.661449
vt 0.024915 0.621001
vt 0.338467 0.438553
vt 0.259445 0.267191
vt 0.419093 0.228825
vt 0.510160 0.477095
vt 0.116137 0.398789
vt 0.147243 0.495943
vt 0.392983 0.198222
vt 0.231432 0.231033
vt 0.095410 0.362391
vt 0.026787 0.457772
vt 0.000255 0.411786
vt 0.032065 0.589764
vt 0.010576 0.555909
vt 0.054667 0.542450
vt 0.021601 0.291575
vt 0.248901 0.000499
vt 0.108866 0.103234
vn 0.051359 0.322885 -0.945044
vn 0.051359 0.322885 -0.945044
vn 0.051359 0.322885 -0.945044
vn 0.051359 0.322885 -0.945044
vn -0.951704 0.273420 -0.139645
vn -0.951704 0.273420 -0.139645
vn -0.951704 0.273420 -0.139645
vn -0.951704 0.273420 -0.139645
vn 0.050296 0.504060 -0.862203
vn 0.050296 0.504060 -0.862203
vn 0.050296 0.504060 -0.862203
vn 0.050296 0.504060 -0.862203
vn -0.891639 0.431471 0.137161
vn -0.891639 0.431471 0.137161
vn -0.891639 0.431471 0.137161
vn -0.891639 0.431471 0.137161
vn 0.539656 0.250432 0.803776
vn 0.539656 0.250432 0.803776
vn 0.539656 0.250432 0.803776
vn 0.539656 0.250432 0.803776
vn 0.521998 0.674564 0.521998
vn 0.521998 0.674564 0.521998
vn 0.521998 0.674564 0.521998
vn 0.521998 0.674564 0.521998
vn -0.023568 0.319261 0.947374
vn -0.023568 0.319261 0.947374
vn -0.023568 0.319261 0.947374
vn -0.023568 0.319261 0.947374
vn 0.988056 0.146568 0.047577
vn 0.988056 0.146568 0.047577
vn 0.988056 0.146568 0.047577
vn 0.988056 0.146568 0.047577
vn 0.000000 0.542705 0.839924
vn 0.000000 0.542705 0.839924
vn 0.000000 0.542705 0.839924
vn 0.839923 0.542705 0.000000
vn 0.839923 0.542705 0.000000
vn 0.839923 0.542705 0.000000
vn 0.416581 0.808036 0.416580
vn 0.416581 0.808036 0.416580
vn 0.416581 0.808036 0.416580
vn 0.973306 0.130049 0.189110
vn 0.973306 0.130050 0.189110
vn 0.973306 0.130050 0.189110
vn 0.973306 0.130049 0.189110
vn 0.548702 0.176139 0.817252
vn 0.548702 0.176139 0.817253
vn 0.548702 0.176139 0.817252
vn 0.548702 0.176139 0.817253
vn -0.175021 0.115354 0.977784
vn -0.175021 0.115354 0.977784
vn -0.175021 0.115354 0.977784
vn -0.175021 0.115354 0.977784
vn -0.949784 0.217621 -0.224836
vn -0.949784 0.217621 -0.224836
vn -0.949784 0.217621 -0.224836
vn -0.949784 0.217621 -0.224836
vn 0.172746 0.218448 -0.960437
vn 0.172746 0.218448 -0.960437
vn 0.172746 0.218448 -0.960437
vn 0.172746 0.218448 -0.960437
s off
g tallrok1:pCube4
usemtl tallrok1:initialShadingGroup
f 18/4/1 14/9/2 6/12/3 5/1/4
f 5/1/5 1/2/6 17/3/7 18/4/8
f 4/14/9 3/6/10 11/20/11 13/22/12
f 3/6/13 2/5/14 12/7/15 11/8/16
f 8/15/17 7/11/18 15/10/19 16/16/20
f 9/17/21 10/13/22 13/18/23 12/19/24
f 1/24/25 8/15/26 16/16/27 17/25/28
f 14/9/29 15/10/30 7/11/31 6/12/32
f 2/23/33 9/17/34 12/19/35
f 10/13/36 4/14/37 13/18/38
f 11/20/39 12/21/40 13/22/41
f 10/13/42 15/10/43 14/9/44 4/14/45
f 16/16/46 15/10/47 10/13/48 9/17/49
f 17/25/50 16/16/51 9/17/52 2/23/53
f 18/4/54 17/3/55 2/5/56 3/6/57
f 3/6/58 4/14/59 14/9/60 18/4/61
