# This file uses centimeters as units for non-parametric coordinates.

mtllib flecha.mtl
g default
v 0.233775 -0.240578 7.136614
v 0.233775 0.240578 7.136614
v -0.233775 -0.240578 7.136614
v -0.233775 0.240578 7.136614
v -0.233775 -0.240578 -8.148696
v -0.233775 0.240578 -8.148696
v 0.233775 -0.240578 -8.148696
v 0.233775 0.240578 -8.148696
v -0.000002 -0.000000 -12.604897
v -0.000000 1.459839 -8.148696
v 0.000000 -1.459839 -8.148696
v 0.233775 -0.240578 7.726197
v 0.233775 0.240578 7.726197
v -0.233775 0.240578 7.726197
v -0.233775 -0.240578 7.726197
v 0.500000 1.500000 8.344275
v -0.500000 1.500000 8.344275
v 0.500000 -1.500000 8.344275
v -0.500000 -1.500000 8.344275
v 1.500000 -0.500000 8.344275
v 1.500000 0.500000 8.344275
v -1.500000 -0.500000 8.344275
v -1.500000 0.500000 8.344275
v 0.233775 -0.240578 9.568486
v 0.233775 0.240578 9.568486
v -0.233775 0.240578 9.568486
v -0.233775 -0.240578 9.568486
vt 0.598559 0.613996
vt 0.598559 0.469816
vt 0.683538 0.469816
vt 0.683538 0.613996
vt 0.690610 0.613996
vt 0.690610 0.469816
vt 0.775589 0.469816
vt 0.775589 0.613996
vt 0.587858 0.232134
vt 0.582296 0.232134
vt 0.576466 0.001992
vt 0.788222 0.232134
vt 0.782661 0.232134
vt 0.794053 0.001992
vt 0.743801 0.235904
vt 0.749362 0.235904
vt 0.755192 0.466046
vt 0.544894 0.235904
vt 0.550456 0.235904
vt 0.539064 0.466046
vt 0.939956 0.469816
vt 0.939956 0.554795
vt 0.922579 0.554795
vt 0.922579 0.469816
vt 0.925364 0.643545
vt 0.925364 0.558566
vt 0.942742 0.558566
vt 0.942742 0.643545
vt 0.001882 0.311050
vt 0.001882 0.223598
vt 0.146061 0.223598
vt 0.146061 0.311050
vt 0.188094 0.267324
vt 0.146061 0.001992
vt 0.146061 0.532656
vt 0.237407 0.311050
vt 0.237407 0.223598
vt 0.381586 0.223598
vt 0.381586 0.311050
vt 0.195374 0.267324
vt 0.237407 0.532656
vt 0.237407 0.001992
vt 0.345718 0.765332
vt 0.340157 0.765332
vt 0.334327 0.536426
vt 0.135151 0.765332
vt 0.129590 0.765332
vt 0.140981 0.536426
vt 0.189851 0.769102
vt 0.195412 0.769102
vt 0.201242 0.998008
vt 0.401876 0.769103
vt 0.407437 0.769103
vt 0.396046 0.998008
vt 0.874712 0.557268
vt 0.874712 0.469816
vt 0.892090 0.469816
vt 0.892090 0.557268
vt 0.916023 0.469816
vt 0.916023 0.557268
vt 0.898646 0.557268
vt 0.898646 0.469816
vt 0.782661 0.557268
vt 0.782661 0.469816
vt 0.867640 0.469816
vt 0.867640 0.557268
vt 0.499435 0.990709
vt 0.414456 0.990709
vt 0.456945 0.769103
vt 0.506507 0.769103
vt 0.591486 0.769103
vt 0.548997 0.990709
vt 0.484881 0.765333
vt 0.399901 0.765333
vt 0.351514 0.536427
vt 0.533269 0.536427
vt 0.280144 0.765332
vt 0.195164 0.765332
vt 0.146777 0.536427
vt 0.328531 0.536427
vt 0.050269 0.769102
vt 0.135249 0.769102
vt 0.183637 0.998007
vt 0.001882 0.998007
vt 0.256648 0.769103
vt 0.341628 0.769103
vt 0.390015 0.998008
vt 0.208261 0.998008
vt 0.435832 0.001992
vt 0.523285 0.001992
vt 0.570436 0.232134
vt 0.388681 0.232134
vt 0.729480 0.232134
vt 0.642028 0.232134
vt 0.594876 0.001992
vt 0.776631 0.001992
vt 0.895591 0.466045
vt 0.808139 0.466045
vt 0.760988 0.235904
vt 0.942742 0.235904
vt 0.603402 0.235904
vt 0.690854 0.235904
vt 0.738005 0.466046
vt 0.556251 0.466046
vn 0.000000 0.000000 1.000000
vn 0.000000 0.000000 1.000000
vn 0.000000 0.000000 1.000000
vn 0.000000 0.000000 1.000000
vn -1.000000 -0.000000 0.000000
vn -1.000000 -0.000000 0.000000
vn -1.000000 -0.000000 0.000000
vn -1.000000 -0.000000 0.000000
vn 1.000000 0.000000 0.000000
vn 1.000000 0.000000 0.000000
vn 1.000000 0.000000 0.000000
vn 1.000000 0.000000 0.000000
vn -0.000000 1.000000 0.000000
vn -0.000000 1.000000 0.000000
vn -0.000000 1.000000 0.000000
vn -0.000000 1.000000 0.000000
vn 0.000000 -1.000000 0.000000
vn 0.000000 -1.000000 0.000000
vn 0.000000 -1.000000 0.000000
vn 0.000000 -1.000000 0.000000
vn -0.998627 -0.000000 -0.052388
vn -0.998627 -0.000000 -0.052388
vn -0.998627 -0.000000 -0.052388
vn 0.998627 0.000000 -0.052389
vn 0.998627 0.000000 -0.052389
vn 0.998627 0.000000 -0.052389
vn 0.000000 -0.000001 1.000000
vn 0.000000 -0.000001 1.000000
vn 0.000000 -0.000001 1.000000
vn 0.980247 0.187948 -0.061572
vn 0.980247 0.187948 -0.061572
vn 0.980247 0.187948 -0.061572
vn -0.980247 0.187948 -0.061571
vn -0.980247 0.187948 -0.061571
vn -0.980247 0.187948 -0.061571
vn 0.000000 0.000000 1.000000
vn 0.000000 0.000000 1.000000
vn 0.000000 0.000000 1.000000
vn -0.980247 -0.187948 -0.061571
vn -0.980247 -0.187948 -0.061571
vn -0.980247 -0.187948 -0.061571
vn 0.980247 -0.187948 -0.061572
vn 0.980247 -0.187948 -0.061572
vn 0.980247 -0.187948 -0.061572
vn -0.000000 0.692119 -0.721783
vn -0.000000 0.692119 -0.721783
vn -0.000000 0.692119 -0.721783
vn -0.000000 0.692119 -0.721783
vn -0.978380 -0.206816 0.000000
vn -0.978380 -0.206816 0.000000
vn -0.978380 -0.206816 0.000000
vn 0.000000 -0.440568 0.897719
vn 0.000000 -0.440568 0.897719
vn 0.000000 -0.440568 0.897719
vn 0.000000 -0.440568 0.897719
vn 0.978380 -0.206816 0.000000
vn 0.978380 -0.206816 0.000000
vn 0.978380 -0.206816 0.000000
vn 0.000000 -0.692119 -0.721783
vn 0.000000 -0.692119 -0.721783
vn 0.000000 -0.692119 -0.721783
vn 0.000000 -0.692119 -0.721783
vn 0.978380 0.206816 0.000000
vn 0.978380 0.206816 0.000000
vn 0.978380 0.206816 0.000000
vn -0.000000 0.440568 0.897719
vn -0.000000 0.440568 0.897719
vn -0.000000 0.440568 0.897719
vn -0.000000 0.440568 0.897719
vn -0.978380 0.206816 0.000000
vn -0.978380 0.206816 0.000000
vn -0.978380 0.206816 0.000000
vn 0.690174 0.000000 -0.723643
vn 0.690174 0.000000 -0.723643
vn 0.690174 0.000000 -0.723643
vn 0.690174 0.000000 -0.723643
vn -0.200709 0.979651 0.000000
vn -0.200709 0.979651 0.000000
vn -0.200709 0.979651 0.000000
vn -0.438657 -0.000000 0.898655
vn -0.438657 -0.000000 0.898655
vn -0.438657 -0.000000 0.898655
vn -0.438657 -0.000000 0.898655
vn -0.200709 -0.979651 0.000000
vn -0.200709 -0.979651 0.000000
vn -0.200709 -0.979651 0.000000
vn -0.690174 -0.000000 -0.723643
vn -0.690174 -0.000000 -0.723643
vn -0.690174 -0.000000 -0.723643
vn -0.690174 -0.000000 -0.723643
vn 0.200709 -0.979651 0.000000
vn 0.200709 -0.979651 0.000000
vn 0.200709 -0.979651 0.000000
vn 0.438657 0.000000 0.898655
vn 0.438657 0.000000 0.898655
vn 0.438657 0.000000 0.898655
vn 0.438657 0.000000 0.898655
vn 0.200709 0.979651 0.000000
vn 0.200709 0.979651 0.000000
vn 0.200709 0.979651 0.000000
vn 1.000000 0.000000 0.000000
vn 1.000000 0.000000 0.000000
vn 1.000000 0.000000 0.000000
vn 1.000000 0.000000 0.000000
vn -0.000000 1.000000 0.000000
vn -0.000000 1.000000 0.000000
vn -0.000000 1.000000 0.000000
vn -0.000000 1.000000 0.000000
vn -1.000000 -0.000000 0.000000
vn -1.000000 -0.000000 0.000000
vn -1.000000 -0.000000 0.000000
vn -1.000000 -0.000000 0.000000
vn 0.000000 -1.000000 0.000000
vn 0.000000 -1.000000 0.000000
vn 0.000000 -1.000000 0.000000
vn 0.000000 -1.000000 0.000000
s off
g pCube1
usemtl initialShadingGroup
f 24/63/1 25/64/2 26/65/3 27/66/4
f 3/29/5 4/30/6 6/31/7 5/32/8
f 7/36/9 8/37/10 2/38/11 1/39/12
f 2/1/13 8/2/14 6/3/15 4/4/16
f 7/5/17 1/6/18 3/7/19 5/8/20
f 5/32/21 6/31/22 9/33/23
f 8/37/24 7/36/25 9/40/26
f 6/67/27 8/68/28 10/69/29
f 8/37/30 9/40/31 10/42/32
f 9/33/33 6/31/34 10/34/35
f 7/70/36 5/71/37 11/72/38
f 5/32/39 9/33/40 11/35/41
f 9/40/42 7/36/43 11/41/44
f 2/73/45 4/74/46 17/75/47 16/76/48
f 4/43/49 14/44/50 17/45/51
f 14/77/52 13/78/53 16/79/54 17/80/55
f 13/46/56 2/47/57 16/48/58
f 3/81/59 1/82/60 18/83/61 19/84/62
f 1/49/63 12/50/64 18/51/65
f 12/85/66 15/86/67 19/87/68 18/88/69
f 15/52/70 3/53/71 19/54/72
f 1/89/73 2/90/74 21/91/75 20/92/76
f 2/9/77 13/10/78 21/11/79
f 13/93/80 12/94/81 20/95/82 21/96/83
f 12/12/84 1/13/85 20/14/86
f 4/97/87 3/98/88 22/99/89 23/100/90
f 3/15/91 15/16/92 22/17/93
f 15/101/94 14/102/95 23/103/96 22/104/97
f 14/18/98 4/19/99 23/20/100
f 12/55/101 13/56/102 25/57/103 24/58/104
f 13/21/105 14/22/106 26/23/107 25/24/108
f 14/59/109 15/60/110 27/61/111 26/62/112
f 15/25/113 12/26/114 24/27/115 27/28/116
