# This file uses centimeters as units for non-parametric coordinates.

mtllib birock big.mtl
g default
v -20.692617 0.000012 21.372698
v -9.784005 46.496250 9.784013
v -9.784005 46.496250 -9.784004
v 9.784006 46.496250 -9.784004
v -21.737265 0.000012 -19.996054
v 13.694144 0.000012 -24.786839
v 18.357262 0.000012 11.268663
v 13.657656 0.000012 15.968292
v 5.084399 46.496250 9.784013
v 9.784006 46.496250 5.084420
v -4.428950 61.296104 -1.960828
v -2.349804 58.001865 2.349823
v 2.349804 58.001865 -2.349796
v 16.469774 19.982563 -11.092398
v 8.913936 19.982563 12.927265
v 3.180265 19.982563 15.232553
v -20.161921 19.982563 8.392926
v -8.999498 19.982563 -19.192867
vt 0.495287 0.726983
vt 0.342771 0.996705
vt 0.265338 0.836049
vt 0.349593 0.633195
vt 0.083383 0.750360
vt 0.146814 0.628351
vt 0.023371 0.659808
vt 0.025075 0.619498
vt 0.337557 0.437673
vt 0.258804 0.266896
vt 0.417907 0.228662
vt 0.508663 0.476083
vt 0.115985 0.398045
vt 0.146986 0.494867
vt 0.391886 0.198163
vt 0.230887 0.230862
vt 0.095330 0.361772
vt 0.026941 0.456826
vt 0.000499 0.410998
vt 0.032201 0.588367
vt 0.010785 0.554628
vt 0.054726 0.541215
vt 0.021772 0.291197
vt 0.248297 0.001116
vt 0.108739 0.103499
vn 0.051359 0.322885 -0.945044
vn 0.051359 0.322885 -0.945044
vn 0.051359 0.322885 -0.945044
vn 0.051359 0.322885 -0.945044
vn -0.951704 0.273420 -0.139645
vn -0.951704 0.273420 -0.139645
vn -0.951704 0.273420 -0.139645
vn -0.951704 0.273420 -0.139645
vn 0.050296 0.504060 -0.862203
vn 0.050296 0.504060 -0.862203
vn 0.050296 0.504060 -0.862203
vn 0.050296 0.504060 -0.862203
vn -0.891639 0.431471 0.137161
vn -0.891639 0.431471 0.137161
vn -0.891639 0.431471 0.137161
vn -0.891639 0.431471 0.137161
vn 0.539656 0.250432 0.803776
vn 0.539656 0.250432 0.803776
vn 0.539656 0.250432 0.803776
vn 0.539656 0.250432 0.803776
vn 0.521998 0.674564 0.521998
vn 0.521998 0.674564 0.521998
vn 0.521998 0.674564 0.521998
vn 0.521998 0.674564 0.521998
vn -0.023568 0.319261 0.947374
vn -0.023568 0.319261 0.947374
vn -0.023568 0.319261 0.947374
vn -0.023568 0.319261 0.947374
vn 0.988056 0.146568 0.047577
vn 0.988056 0.146568 0.047577
vn 0.988056 0.146568 0.047577
vn 0.988056 0.146568 0.047577
vn 0.000000 0.542705 0.839924
vn 0.000000 0.542705 0.839924
vn 0.000000 0.542705 0.839924
vn 0.839923 0.542705 0.000000
vn 0.839923 0.542705 0.000000
vn 0.839923 0.542705 0.000000
vn 0.416581 0.808036 0.416580
vn 0.416581 0.808036 0.416580
vn 0.416581 0.808036 0.416580
vn 0.973306 0.130049 0.189110
vn 0.973306 0.130050 0.189110
vn 0.973306 0.130050 0.189110
vn 0.973306 0.130049 0.189110
vn 0.548702 0.176139 0.817252
vn 0.548702 0.176139 0.817253
vn 0.548702 0.176139 0.817252
vn 0.548702 0.176139 0.817253
vn -0.175021 0.115354 0.977784
vn -0.175021 0.115354 0.977784
vn -0.175021 0.115354 0.977784
vn -0.175021 0.115354 0.977784
vn -0.949784 0.217621 -0.224836
vn -0.949784 0.217621 -0.224836
vn -0.949784 0.217621 -0.224836
vn -0.949784 0.217621 -0.224836
vn 0.172746 0.218448 -0.960437
vn 0.172746 0.218448 -0.960437
vn 0.172746 0.218448 -0.960437
vn 0.172746 0.218448 -0.960437
s off
g tallrok1:pCube4
usemtl tallrok1:initialShadingGroup
f 18/4/1 14/9/2 6/12/3 5/1/4
f 5/1/5 1/2/6 17/3/7 18/4/8
f 4/14/9 3/6/10 11/20/11 13/22/12
f 3/6/13 2/5/14 12/7/15 11/8/16
f 8/15/17 7/11/18 15/10/19 16/16/20
f 9/17/21 10/13/22 13/18/23 12/19/24
f 1/24/25 8/15/26 16/16/27 17/25/28
f 14/9/29 15/10/30 7/11/31 6/12/32
f 2/23/33 9/17/34 12/19/35
f 10/13/36 4/14/37 13/18/38
f 11/20/39 12/21/40 13/22/41
f 10/13/42 15/10/43 14/9/44 4/14/45
f 16/16/46 15/10/47 10/13/48 9/17/49
f 17/25/50 16/16/51 9/17/52 2/23/53
f 18/4/54 17/3/55 2/5/56 3/6/57
f 3/6/58 4/14/59 14/9/60 18/4/61
g default
v -9.784005 56.843076 7.352669
v -9.784005 64.290189 -10.742861
v 9.784006 64.290189 -10.742861
v 5.084400 56.843076 7.352669
v 9.784006 58.631616 3.006709
v -4.428952 72.274839 1.002944
v -2.349804 67.587965 3.735525
v 2.349803 69.376525 -0.610454
v -13.005509 71.733685 -2.207111
v 4.723377 74.885654 -9.866005
v -4.723374 64.986511 14.187684
v 11.016414 69.758931 2.591297
v 8.747604 67.381481 8.368203
v -7.254170 84.228797 -1.732497
v 6.944257 84.274118 -1.842681
v -7.135026 78.825226 11.397508
v 7.034788 80.168338 8.133934
v 3.653404 78.859681 11.313788
v -2.632126 93.032772 0.456405
v 5.917041 91.709160 3.672577
v -6.110009 89.779143 8.362259
v 3.274433 89.236992 9.679698
v 0.385929 88.773457 10.806010
v 0.167054 97.057812 9.291617
vt 0.776847 0.683809
vt 0.693441 0.659063
vt 0.791906 0.556481
vt 0.871864 0.581815
vt 0.674400 0.556256
vt 0.736638 0.476949
vt 0.656509 0.478525
vt 0.691170 0.423960
vt 0.620289 0.420176
vt 0.720697 0.144161
vt 0.743160 0.228818
vt 0.637831 0.205552
vt 0.614346 0.129569
vt 0.690786 0.304869
vt 0.614303 0.290236
vt 0.591030 0.200585
vt 0.566613 0.122798
vt 0.661481 0.365649
vt 0.611267 0.360986
vt 0.579968 0.292595
vt 0.589595 0.366487
vt 0.577638 0.097834
vt 0.642857 0.023382
vt 0.679147 0.055592
vt 0.607502 0.742597
vt 0.678572 0.000498
vt 0.868916 0.250560
vt 0.917663 0.380115
vt 0.860506 0.441161
vt 0.808738 0.309367
vt 0.763795 0.425840
vt 0.720347 0.333812
vt 0.512044 0.697372
vt 0.509487 0.617368
vt 0.608589 0.658598
vt 0.568960 0.546202
vt 0.645610 0.561605
vt 0.605853 0.479757
vt 0.584662 0.470373
vt 0.871983 0.700058
vt 0.999501 0.310310
vt 0.909673 0.683045
vt 0.525300 0.792840
vt 0.962694 0.271474
vn -0.063465 -0.859373 0.507395
vn -0.063465 -0.859373 0.507395
vn -0.063465 -0.859373 0.507395
vn -0.063465 -0.859373 0.507395
vn 0.839675 -0.428614 -0.333520
vn 0.839675 -0.428614 -0.333520
vn 0.839675 -0.428614 -0.333520
vn 0.839675 -0.428614 -0.333520
vn -0.446446 -0.547222 -0.707979
vn -0.446446 -0.547222 -0.707979
vn -0.446446 -0.547222 -0.707979
vn -0.446446 -0.547222 -0.707979
vn 0.000000 -0.319045 -0.947739
vn 0.000000 -0.319045 -0.947739
vn 0.000000 -0.319045 -0.947739
vn -0.755001 -0.606380 -0.249553
vn -0.755001 -0.606380 -0.249553
vn -0.755001 -0.606380 -0.249553
vn -0.416580 -0.588692 -0.692750
vn -0.416580 -0.588692 -0.692750
vn -0.416580 -0.588692 -0.692750
vn -0.216779 0.371525 -0.902760
vn -0.216779 0.371525 -0.902760
vn -0.216779 0.371525 -0.902760
vn -0.216779 0.371525 -0.902760
vn -0.976221 -0.082501 0.200467
vn -0.976221 -0.082501 0.200467
vn -0.976221 -0.082501 0.200467
vn -0.976221 -0.082501 0.200467
vn 0.843578 -0.204371 0.496598
vn 0.843578 -0.204371 0.496598
vn 0.843578 -0.204371 0.496598
vn 0.843578 -0.204371 0.496598
vn 0.215692 -0.462179 0.860156
vn 0.215692 -0.462179 0.860156
vn 0.215692 -0.462179 0.860156
vn 0.215692 -0.462179 0.860156
vn 0.971323 0.174605 -0.161385
vn 0.971323 0.174605 -0.161385
vn 0.971323 0.174605 -0.161385
vn 0.971323 0.174605 -0.161385
vn -0.253904 0.429110 -0.866832
vn -0.253904 0.429110 -0.866832
vn -0.253904 0.429110 -0.866832
vn -0.253904 0.429110 -0.866832
vn -0.933768 0.147109 0.326246
vn -0.933768 0.147109 0.326246
vn -0.933768 0.147109 0.326246
vn -0.933768 0.147109 0.326245
vn 0.816712 0.119742 0.564485
vn 0.816712 0.119742 0.564485
vn 0.816712 0.119742 0.564485
vn 0.816712 0.119742 0.564485
vn 0.230088 0.062254 0.971177
vn 0.230088 0.062254 0.971177
vn 0.230088 0.062254 0.971177
vn 0.230088 0.062254 0.971177
vn 0.959389 0.212470 -0.185554
vn 0.959389 0.212470 -0.185554
vn 0.959389 0.212470 -0.185554
vn 0.959389 0.212470 -0.185554
vn 0.146031 0.397464 -0.905923
vn 0.146031 0.397464 -0.905924
vn 0.146031 0.397464 -0.905924
vn 0.146031 0.397464 -0.905923
vn -0.961149 0.272947 -0.041134
vn -0.961149 0.272947 -0.041134
vn -0.961149 0.272947 -0.041134
vn -0.961149 0.272947 -0.041134
vn 0.530365 0.150738 0.834261
vn 0.530365 0.150738 0.834261
vn 0.530365 0.150738 0.834261
vn 0.530365 0.150738 0.834261
vn -0.125250 0.152975 0.980261
vn -0.125250 0.152975 0.980261
vn -0.125250 0.152975 0.980261
vn -0.125250 0.152975 0.980261
vn 0.957011 0.180468 0.227073
vn 0.957011 0.180468 0.227073
vn 0.957011 0.180468 0.227073
vn 0.957011 0.180468 0.227073
vn 0.305939 0.826087 -0.473266
vn 0.305940 0.826087 -0.473266
vn 0.305939 0.826087 -0.473266
vn -0.752043 0.656310 -0.060731
vn -0.752043 0.656310 -0.060731
vn -0.752043 0.656310 -0.060731
vn 0.332543 0.178082 0.926122
vn 0.332543 0.178082 0.926122
vn 0.332543 0.178082 0.926122
vn -0.325442 0.161705 0.931632
vn -0.325442 0.161705 0.931632
vn -0.325442 0.161705 0.931632
vn 0.799987 0.342306 0.492795
vn 0.799987 0.342306 0.492795
vn 0.799987 0.342306 0.492795
s off
g pCube4
usemtl tallrok1:initialShadingGroup
f 21/52/62 26/69/63 24/66/64 20/53/65
f 20/29/66 24/67/67 25/65/68 19/26/69
f 22/47/70 25/48/71 26/49/72 23/38/73
f 19/50/74 25/68/75 22/58/76
f 23/38/77 26/49/78 21/35/79
f 24/51/80 26/49/81 25/48/82
f 20/53/83 27/54/84 28/55/85 21/52/86
f 19/26/87 29/27/88 27/28/89 20/29/90
f 23/38/91 30/37/92 31/41/93 22/42/94
f 22/58/95 31/59/96 29/60/97 19/50/98
f 21/35/99 28/36/100 30/37/101 23/38/102
f 28/55/103 27/54/104 32/56/105 33/57/106
f 27/28/107 29/27/108 34/30/109 32/31/110
f 31/41/111 30/37/112 35/40/113 36/45/114
f 29/60/115 31/59/116 36/61/117 34/62/118
f 30/37/119 28/36/120 33/39/121 35/40/122
f 33/57/123 32/56/124 37/33/125 38/43/126
f 32/31/127 34/30/128 39/32/129 37/33/130
f 36/45/131 35/40/132 40/44/133 41/46/134
f 34/62/135 36/61/136 41/63/137 39/32/138
f 35/40/139 33/39/140 38/43/141 40/44/142
f 38/43/143 37/33/144 42/34/145
f 37/33/146 39/32/147 42/34/148
f 41/63/149 40/64/150 42/34/151
f 39/32/152 41/63/153 42/34/154
f 40/44/155 38/43/156 42/34/157
